<?xml version="1.0" encoding="UTF-8" standalone="no"?>
<svg
   xmlns:dc="http://purl.org/dc/elements/1.1/"
   xmlns:cc="http://creativecommons.org/ns#"
   xmlns:rdf="http://www.w3.org/1999/02/22-rdf-syntax-ns#"
   xmlns:svg="http://www.w3.org/2000/svg"
   xmlns="http://www.w3.org/2000/svg"
   viewBox="0 0 385.33334 237.33333"
   height="237.33333"
   width="385.33334"
   xml:space="preserve"
   id="svg2"
   version="1.1"><metadata
     id="metadata8"><rdf:RDF><cc:Work
         rdf:about=""><dc:format>image/svg+xml</dc:format><dc:type
           rdf:resource="http://purl.org/dc/dcmitype/StillImage" /></cc:Work></rdf:RDF></metadata><defs
     id="defs6" /><g
     transform="matrix(1.3333333,0,0,-1.3333333,0,237.33333)"
     id="g10"><g
       transform="scale(0.1)"
       id="g12"><path
         id="path14"
         style="fill:#ffffff;fill-opacity:1;fill-rule:evenodd;stroke:none"
         d="M 2820,630 2700,740 H 2490 V 890 H 2300 V 210 h 190 v 350 h 140 V 210 h 190 z M 2230,740 H 1950 L 1840,630 V 330 l 120,-120 h 270 v 190 h -200 v 160 h 200 z m -460,0 H 1630 V 890 H 1450 V 330 l 110,-120 h 210 v 190 h -140 v 160 h 140 z m -390,150 h -170 v -80 h 170 z m 0,-150 H 1210 V 210 h 170 z m -240,0 H 960 V 400 H 890 V 740 H 720 V 400 H 650 V 740 H 460 V 210 h 560 l 120,120 z m -750,0 H 250 V 890 H 70 V 330 L 180,210 H 390 V 400 H 250 V 560 H 390 Z M 2890,650 V 180 L 2630,0 H 2470 V 80 L 2350,0 H 2210 V 80 L 2120,0 H 1860 L 1780,80 1760,0 1530.54,0.578125 1440,80 1430,0 1169.93,0.578125 1160,80 1090.02,0.578125 690,0 610,40 V 0 H 390 L 150,150 0,300 V 960 H 310 L 460,810 h 680 v 150 h 560 V 810 h 140 v -80 l 80,80 h 170 l 150,150 h 320 V 810 h 170 z m -850,930 h 70 v -200 h -70 z m 180,0 h 70 v -200 h -70 z m 180,-230 -110,-110 h -180 l -100,-100 v 100 h -150 v 470 h 540 z m -600,430 -40,-130 0.9,-600 H 1910 v -80 h 80 l 80,80 h 140 l 260,260 v 470 h -670" /></g></g></svg>
